  0
SECTION
  2
HEADER
  9
$ACADVER
  1
AC1009
  9
$INSBASE
 10
0.0
 20
0.0
 30
0.0
  9
$EXTMIN
 10
0.0
 20
0.0
 30
0.0
  9
$EXTMAX
 10
0.0
 20
0.0
 30
0.0
  0
ENDSEC
  0
SECTION
  2
TABLES
  0
TABLE
  2
VPORT
 70
0
  0
ENDTAB
  0
TABLE
  2
LTYPE
 70
1
  0
LTYPE
  2
CONTINUOUS
 70
0
  3
Solid line
 72
65
 73
0
 40
0.0
  0
ENDTAB
  0
TABLE
  2
LAYER
 70
1
  0
LAYER
  2
0
 70
64
 62
7
  6
continuous
  0
ENDTAB
  0
TABLE
  2
STYLE
 70
1
  0
STYLE
  2
STANDARD
 70
0
 40
0
 41
1.0
 50
0.0
 71
0
 42
1
 3
ARIAL.TTF
 4

  0
ENDTAB
  0
TABLE
  2
VIEW
 70
0
  0
ENDTAB
  0
ENDSEC
  0
SECTION
  2
BLOCKS
  0
ENDSEC
  0
SECTION
  2
ENTITIES
  0
POLYLINE
  8
0
 62
0
 70
0
 66
1
 10
0.0
 20
0.0
 30
0.0
  0
VERTEX
  8
0
 10
402.66666666666663
 20
396.3333333333333
 30
0.0
  0
VERTEX
  8
0
 10
402.78790509259255
 20
390.2271412037037
 30
0.0
  0
VERTEX
  8
0
 10
403.1516203703703
 20
384.380787037037
 30
0.0
  0
VERTEX
  8
0
 10
403.75781249999994
 20
378.7942708333333
 30
0.0
  0
VERTEX
  8
0
 10
404.60648148148147
 20
373.4675925925926
 30
0.0
  0
VERTEX
  8
0
 10
405.6976273148148
 20
368.4007523148148
 30
0.0
  0
VERTEX
  8
0
 10
407.03124999999994
 20
363.59375
 30
0.0
  0
VERTEX
  8
0
 10
408.607349537037
 20
359.04658564814815
 30
0.0
  0
VERTEX
  8
0
 10
410.42592592592587
 20
354.75925925925924
 30
0.0
  0
VERTEX
  8
0
 10
412.48697916666663
 20
350.7317708333333
 30
0.0
  0
VERTEX
  8
0
 10
414.79050925925924
 20
346.9641203703704
 30
0.0
  0
VERTEX
  8
0
 10
417.3365162037037
 20
343.4563078703704
 30
0.0
  0
VERTEX
  8
0
 10
420.125
 20
340.2083333333333
 30
0.0
  0
VERTEX
  8
0
 10
423.1559606481481
 20
337.22019675925924
 30
0.0
  0
VERTEX
  8
0
 10
426.4293981481481
 20
334.49189814814815
 30
0.0
  0
VERTEX
  8
0
 10
429.9453125
 20
332.0234375
 30
0.0
  0
VERTEX
  8
0
 10
433.7037037037037
 20
329.8148148148148
 30
0.0
  0
VERTEX
  8
0
 10
437.70457175925924
 20
327.8660300925926
 30
0.0
  0
VERTEX
  8
0
 10
441.94791666666663
 20
326.1770833333333
 30
0.0
  0
VERTEX
  8
0
 10
446.4337384259259
 20
324.74797453703707
 30
0.0
  0
VERTEX
  8
0
 10
451.162037037037
 20
323.5787037037037
 30
0.0
  0
VERTEX
  8
0
 10
456.1328125
 20
322.66927083333337
 30
0.0
  0
VERTEX
  8
0
 10
461.3460648148148
 20
322.0196759259259
 30
0.0
  0
VERTEX
  8
0
 10
466.80179398148147
 20
321.62991898148147
 30
0.0
  0
VERTEX
  8
0
 10
472.5
 20
321.5
 30
0.0
  0
SEQEND
  8
0
  0
POLYLINE
  8
0
 62
0
 70
0
 66
1
 10
0.0
 20
0.0
 30
0.0
  0
VERTEX
  8
0
 10
296.8191111422554
 20
231.0099658817189
 30
0.0
  0
VERTEX
  8
0
 10
376.375
 20
142.16666666666669
 30
0.0
  0
SEQEND
  8
0
  0
POLYLINE
  8
0
 62
0
 70
0
 66
1
 10
0.0
 20
0.0
 30
0.0
  0
VERTEX
  8
0
 10
272.6875
 20
201.08333333333334
 30
0.0
  0
VERTEX
  8
0
 10
376.375
 20
142.16666666666669
 30
0.0
  0
SEQEND
  8
0
  0
POLYLINE
  8
0
 62
0
 70
0
 66
1
 10
0.0
 20
0.0
 30
0.0
  0
VERTEX
  8
0
 10
467.5
 20
0.0
 30
0.0
  0
VERTEX
  8
0
 10
467.5
 20
320.75
 30
0.0
  0
SEQEND
  8
0
  0
POLYLINE
  8
0
 62
0
 70
0
 66
1
 10
0.0
 20
0.0
 30
0.0
  0
VERTEX
  8
0
 10
226.46875
 20
142.16666666666669
 30
0.0
  0
VERTEX
  8
0
 10
227.90899970273483
 20
134.89774078478004
 30
0.0
  0
VERTEX
  8
0
 10
229.29871432818075
 20
127.79785969084425
 30
0.0
  0
VERTEX
  8
0
 10
230.6378938763377
 20
120.86702338485931
 30
0.0
  0
VERTEX
  8
0
 10
231.9265383472057
 20
114.10523186682522
 30
0.0
  0
VERTEX
  8
0
 10
233.16464774078477
 20
107.51248513674199
 30
0.0
  0
VERTEX
  8
0
 10
234.35222205707493
 20
101.0887831946096
 30
0.0
  0
VERTEX
  8
0
 10
235.4892612960761
 20
94.83412604042807
 30
0.0
  0
VERTEX
  8
0
 10
236.57576545778835
 20
88.7485136741974
 30
0.0
  0
VERTEX
  8
0
 10
237.61173454221165
 20
82.83194609591757
 30
0.0
  0
VERTEX
  8
0
 10
238.597168549346
 20
77.0844233055886
 30
0.0
  0
VERTEX
  8
0
 10
239.53206747919143
 20
71.50594530321048
 30
0.0
  0
VERTEX
  8
0
 10
240.41643133174793
 20
66.0965120887832
 30
0.0
  0
VERTEX
  8
0
 10
241.25026010701546
 20
60.856123662306786
 30
0.0
  0
VERTEX
  8
0
 10
242.03355380499406
 20
55.784780023781224
 30
0.0
  0
VERTEX
  8
0
 10
242.7663124256837
 20
50.8824811732065
 30
0.0
  0
VERTEX
  8
0
 10
243.44853596908442
 20
46.14922711058264
 30
0.0
  0
VERTEX
  8
0
 10
244.0802244351962
 20
41.58501783590964
 30
0.0
  0
VERTEX
  8
0
 10
244.661377824019
 20
37.18985334918747
 30
0.0
  0
VERTEX
  8
0
 10
245.19199613555293
 20
32.963733650416174
 30
0.0
  0
VERTEX
  8
0
 10
245.67207936979787
 20
28.906658739595713
 30
0.0
  0
VERTEX
  8
0
 10
246.10162752675387
 20
25.018628616726133
 30
0.0
  0
VERTEX
  8
0
 10
246.48064060642093
 20
21.299643281807363
 30
0.0
  0
VERTEX
  8
0
 10
246.80911860879905
 20
17.749702734839488
 30
0.0
  0
VERTEX
  8
0
 10
247.08706153388823
 20
14.368806975822451
 30
0.0
  0
VERTEX
  8
0
 10
247.31446938168847
 20
11.156956004756267
 30
0.0
  0
VERTEX
  8
0
 10
247.49134215219976
 20
8.114149821640922
 30
0.0
  0
VERTEX
  8
0
 10
247.61767984542212
 20
5.2403884264764145
 30
0.0
  0
VERTEX
  8
0
 10
247.69348246135553
 20
2.5356718192628023
 30
0.0
  0
VERTEX
  8
0
 10
247.71875
 20
0.0
 30
0.0
  0
SEQEND
  8
0
  0
POLYLINE
  8
0
 62
0
 70
0
 66
1
 10
0.0
 20
0.0
 30
0.0
  0
VERTEX
  8
0
 10
467.5
 20
-150.0
 30
0.0
  0
VERTEX
  8
0
 10
462.58099489795916
 20
-149.99687630154102
 30
0.0
  0
VERTEX
  8
0
 10
457.6619897959184
 20
-149.9875052061641
 30
0.0
  0
VERTEX
  8
0
 10
452.74298469387753
 20
-149.97188671386922
 30
0.0
  0
VERTEX
  8
0
 10
447.82397959183675
 20
-149.9500208246564
 30
0.0
  0
VERTEX
  8
0
 10
442.9049744897959
 20
-149.9219075385256
 30
0.0
  0
VERTEX
  8
0
 10
437.9859693877551
 20
-149.8875468554769
 30
0.0
  0
VERTEX
  8
0
 10
433.0669642857143
 20
-149.8469387755102
 30
0.0
  0
VERTEX
  8
0
 10
428.1479591836735
 20
-149.80008329862557
 30
0.0
  0
VERTEX
  8
0
 10
423.22895408163265
 20
-149.746980424823
 30
0.0
  0
VERTEX
  8
0
 10
418.30994897959187
 20
-149.68763015410246
 30
0.0
  0
VERTEX
  8
0
 10
413.390943877551
 20
-149.62203248646398
 30
0.0
  0
VERTEX
  8
0
 10
408.4719387755102
 20
-149.55018742190754
 30
0.0
  0
VERTEX
  8
0
 10
403.5529336734694
 20
-149.47209496043314
 30
0.0
  0
VERTEX
  8
0
 10
398.63392857142856
 20
-149.3877551020408
 30
0.0
  0
VERTEX
  8
0
 10
393.71492346938777
 20
-149.29716784673053
 30
0.0
  0
VERTEX
  8
0
 10
388.7959183673469
 20
-149.2003331945023
 30
0.0
  0
VERTEX
  8
0
 10
383.87691326530614
 20
-149.0972511453561
 30
0.0
  0
VERTEX
  8
0
 10
378.9579081632653
 20
-148.98792169929197
 30
0.0
  0
VERTEX
  8
0
 10
374.03890306122446
 20
-148.87234485630987
 30
0.0
  0
VERTEX
  8
0
 10
369.1198979591837
 20
-148.75052061640983
 30
0.0
  0
VERTEX
  8
0
 10
364.2008928571429
 20
-148.62244897959184
 30
0.0
  0
VERTEX
  8
0
 10
359.28188775510205
 20
-148.4881299458559
 30
0.0
  0
VERTEX
  8
0
 10
354.3628826530612
 20
-148.347563515202
 30
0.0
  0
VERTEX
  8
0
 10
349.4438775510204
 20
-148.20074968763015
 30
0.0
  0
VERTEX
  8
0
 10
344.5248724489796
 20
-148.04768846314036
 30
0.0
  0
VERTEX
  8
0
 10
339.6058673469388
 20
-147.88837984173261
 30
0.0
  0
VERTEX
  8
0
 10
334.68686224489795
 20
-147.7228238234069
 30
0.0
  0
VERTEX
  8
0
 10
329.7678571428571
 20
-147.55102040816325
 30
0.0
  0
VERTEX
  8
0
 10
324.8488520408163
 20
-147.37296959600167
 30
0.0
  0
VERTEX
  8
0
 10
319.92984693877554
 20
-147.18867138692212
 30
0.0
  0
VERTEX
  8
0
 10
315.0108418367347
 20
-146.99812578092462
 30
0.0
  0
VERTEX
  8
0
 10
310.09183673469386
 20
-146.80133277800917
 30
0.0
  0
VERTEX
  8
0
 10
305.1728316326531
 20
-146.59829237817576
 30
0.0
  0
VERTEX
  8
0
 10
300.2538265306123
 20
-146.38900458142442
 30
0.0
  0
VERTEX
  8
0
 10
295.33482142857144
 20
-146.1734693877551
 30
0.0
  0
VERTEX
  8
0
 10
290.4158163265306
 20
-145.95168679716784
 30
0.0
  0
VERTEX
  8
0
 10
285.4968112244898
 20
-145.72365680966263
 30
0.0
  0
VERTEX
  8
0
 10
280.577806122449
 20
-145.4893794252395
 30
0.0
  0
VERTEX
  8
0
 10
275.6588010204082
 20
-145.24885464389837
 30
0.0
  0
VERTEX
  8
0
 10
270.73979591836735
 20
-145.00208246563932
 30
0.0
  0
VERTEX
  8
0
 10
265.8207908163265
 20
-144.7490628904623
 30
0.0
  0
VERTEX
  8
0
 10
260.9017857142857
 20
-144.48979591836735
 30
0.0
  0
VERTEX
  8
0
 10
255.9827806122449
 20
-144.22428154935443
 30
0.0
  0
VERTEX
  8
0
 10
251.0637755102041
 20
-143.95251978342358
 30
0.0
  0
VERTEX
  8
0
 10
246.14477040816328
 20
-143.67451062057475
 30
0.0
  0
VERTEX
  8
0
 10
241.22576530612247
 20
-143.390254060808
 30
0.0
  0
VERTEX
  8
0
 10
236.30676020408166
 20
-143.09975010412327
 30
0.0
  0
VERTEX
  8
0
 10
231.3877551020408
 20
-142.80299875052063
 30
0.0
  0
VERTEX
  8
0
 10
226.46875
 20
-142.5
 30
0.0
  0
SEQEND
  8
0
  0
POLYLINE
  8
0
 62
0
 70
0
 66
1
 10
0.0
 20
0.0
 30
0.0
  0
VERTEX
  8
0
 10
226.46875
 20
142.16666666666669
 30
0.0
  0
VERTEX
  8
0
 10
232.02066387848856
 20
142.44627660525472
 30
0.0
  0
VERTEX
  8
0
 10
237.18721118811285
 20
143.3515446594728
 30
0.0
  0
VERTEX
  8
0
 10
241.9746572974182
 20
144.83714548512674
 30
0.0
  0
VERTEX
  8
0
 10
246.3892675749499
 20
146.8577537380223
 30
0.0
  0
VERTEX
  8
0
 10
250.4373073892533
 20
149.36804407396534
 30
0.0
  0
VERTEX
  8
0
 10
254.1250421088737
 20
152.32269114876163
 30
0.0
  0
VERTEX
  8
0
 10
257.4587371023564
 20
155.676369618217
 30
0.0
  0
VERTEX
  8
0
 10
260.4446512734694
 20
159.3837519033996
 30
0.0
  0
VERTEX
  8
0
 10
263.08898598595215
 20
163.39949053499865
 30
0.0
  0
VERTEX
  8
0
 10
265.39791242835514
 20
167.6782276127747
 30
0.0
  0
VERTEX
  8
0
 10
267.3776015230156
 20
172.17460514446384
 30
0.0
  0
VERTEX
  8
0
 10
269.0342241922704
 20
176.84326513780212
 30
0.0
  0
VERTEX
  8
0
 10
270.3739513584569
 20
181.63884960052573
 30
0.0
  0
VERTEX
  8
0
 10
271.40295394391194
 20
186.51600054037073
 30
0.0
  0
VERTEX
  8
0
 10
272.1274028709728
 20
191.42935996507322
 30
0.0
  0
VERTEX
  8
0
 10
272.5534690619764
 20
196.3335698823693
 30
0.0
  0
VERTEX
  8
0
 10
272.6875
 20
201.18333333333334
 30
0.0
  0
SEQEND
  8
0
  0
POLYLINE
  8
0
 62
0
 70
0
 66
1
 10
0.0
 20
0.0
 30
0.0
  0
VERTEX
  8
0
 10
247.71875
 20
0.0
 30
0.0
  0
VERTEX
  8
0
 10
247.91369053498744
 20
-5.077683597614475
 30
0.0
  0
VERTEX
  8
0
 10
247.90983839375835
 20
-10.120247803621908
 30
0.0
  0
VERTEX
  8
0
 10
247.7219189597362
 20
-15.130294054437634
 30
0.0
  0
VERTEX
  8
0
 10
247.3646576163444
 20
-20.110423786476993
 30
0.0
  0
VERTEX
  8
0
 10
246.85277974700642
 20
-25.063238436155313
 30
0.0
  0
VERTEX
  8
0
 10
246.20101073514573
 20
-29.991339439887945
 30
0.0
  0
VERTEX
  8
0
 10
245.42407596418573
 20
-34.89732823409021
 30
0.0
  0
VERTEX
  8
0
 10
244.5367008175499
 20
-39.78380625517745
 30
0.0
  0
VERTEX
  8
0
 10
243.55361067866167
 20
-44.653374939565005
 30
0.0
  0
VERTEX
  8
0
 10
242.48953093094445
 20
-49.5086357236682
 30
0.0
  0
VERTEX
  8
0
 10
241.35918695782178
 20
-54.3521900439024
 30
0.0
  0
VERTEX
  8
0
 10
240.17730414271702
 20
-59.1866393366829
 30
0.0
  0
VERTEX
  8
0
 10
238.95860786905365
 20
-64.01458503842508
 30
0.0
  0
VERTEX
  8
0
 10
237.7178235202551
 20
-68.83862858554424
 30
0.0
  0
VERTEX
  8
0
 10
236.4696764797448
 20
-73.66137141445573
 30
0.0
  0
VERTEX
  8
0
 10
235.2288921309463
 20
-78.48541496157489
 30
0.0
  0
VERTEX
  8
0
 10
234.01019585728292
 20
-83.31336066331707
 30
0.0
  0
VERTEX
  8
0
 10
232.82831304217817
 20
-88.14780995609757
 30
0.0
  0
VERTEX
  8
0
 10
231.69796906905552
 20
-92.99136427633175
 30
0.0
  0
VERTEX
  8
0
 10
230.63388932133836
 20
-97.84662506043496
 30
0.0
  0
VERTEX
  8
0
 10
229.65079918245013
 20
-102.71619374482252
 30
0.0
  0
VERTEX
  8
0
 10
228.7634240358143
 20
-107.60267176590976
 30
0.0
  0
VERTEX
  8
0
 10
227.9864892648543
 20
-112.50866056011202
 30
0.0
  0
VERTEX
  8
0
 10
227.33472025299358
 20
-117.43676156384466
 30
0.0
  0
VERTEX
  8
0
 10
226.82284238365563
 20
-122.38957621352297
 30
0.0
  0
VERTEX
  8
0
 10
226.46558104026383
 20
-127.36970594556234
 30
0.0
  0
VERTEX
  8
0
 10
226.27766160624168
 20
-132.3797521963781
 30
0.0
  0
VERTEX
  8
0
 10
226.2738094650126
 20
-137.42231640238552
 30
0.0
  0
VERTEX
  8
0
 10
226.46875
 20
-142.5
 30
0.0
  0
SEQEND
  8
0
  0
POLYLINE
  8
0
 62
0
 70
0
 66
1
 10
0.0
 20
0.0
 30
0.0
  0
VERTEX
  8
0
 10
467.5
 20
-150.0
 30
0.0
  0
VERTEX
  8
0
 10
467.5
 20
0.0
 30
0.0
  0
SEQEND
  8
0
  0
POLYLINE
  8
0
 62
0
 70
0
 66
1
 10
0.0
 20
0.0
 30
0.0
  0
VERTEX
  8
0
 10
405.02500000000003
 20
361.6791666666667
 30
0.0
  0
VERTEX
  8
0
 10
401.0869249382232
 20
361.1337411420177
 30
0.0
  0
VERTEX
  8
0
 10
397.11956419028326
 20
360.3050343275233
 30
0.0
  0
VERTEX
  8
0
 10
393.13016490633726
 20
359.2021690979702
 30
0.0
  0
VERTEX
  8
0
 10
389.12597423654233
 20
357.83426832814524
 30
0.0
  0
VERTEX
  8
0
 10
385.1142393310555
 20
356.2104548928351
 30
0.0
  0
VERTEX
  8
0
 10
381.10220734003394
 20
354.3398516668265
 30
0.0
  0
VERTEX
  8
0
 10
377.0971254136348
 20
352.2315815249063
 30
0.0
  0
VERTEX
  8
0
 10
373.106240702015
 20
349.89476734186115
 30
0.0
  0
VERTEX
  8
0
 10
369.1368003553318
 20
347.3385319924779
 30
0.0
  0
VERTEX
  8
0
 10
365.1960515237422
 20
344.5719983515432
 30
0.0
  0
VERTEX
  8
0
 10
361.2912413574033
 20
341.6042892938438
 30
0.0
  0
VERTEX
  8
0
 10
357.4296170064722
 20
338.4445276941665
 30
0.0
  0
VERTEX
  8
0
 10
353.61842562110604
 20
335.10183642729805
 30
0.0
  0
VERTEX
  8
0
 10
349.8649143514619
 20
331.5853383680252
 30
0.0
  0
VERTEX
  8
0
 10
346.1763303476969
 20
327.9041563911347
 30
0.0
  0
VERTEX
  8
0
 10
342.559920759968
 20
324.0674133714133
 30
0.0
  0
VERTEX
  8
0
 10
339.0229327384325
 20
320.08423218364766
 30
0.0
  0
VERTEX
  8
0
 10
335.5726134332473
 20
315.9637357026247
 30
0.0
  0
VERTEX
  8
0
 10
332.2162099945696
 20
311.71504680313103
 30
0.0
  0
VERTEX
  8
0
 10
328.9609695725565
 20
307.3472883599535
 30
0.0
  0
VERTEX
  8
0
 10
325.81413931736506
 20
302.8695832478787
 30
0.0
  0
VERTEX
  8
0
 10
322.7829663791524
 20
298.29105434169367
 30
0.0
  0
VERTEX
  8
0
 10
319.87469790807563
 20
293.6208245161848
 30
0.0
  0
VERTEX
  8
0
 10
317.0965810542918
 20
288.86801664613915
 30
0.0
  0
VERTEX
  8
0
 10
314.455862967958
 20
284.0417536063433
 30
0.0
  0
VERTEX
  8
0
 10
311.95979079923137
 20
279.1511582715841
 30
0.0
  0
VERTEX
  8
0
 10
309.61561169826894
 20
274.2053535166482
 30
0.0
  0
VERTEX
  8
0
 10
307.4305728152279
 20
269.21346221632234
 30
0.0
  0
VERTEX
  8
0
 10
305.41192130026525
 20
264.1846072453934
 30
0.0
  0
VERTEX
  8
0
 10
303.5669043035382
 20
259.127911478648
 30
0.0
  0
VERTEX
  8
0
 10
301.9027689752037
 20
254.05249779087296
 30
0.0
  0
VERTEX
  8
0
 10
300.42676246541896
 20
248.96748905685507
 30
0.0
  0
VERTEX
  8
0
 10
299.14613192434103
 20
243.882008151381
 30
0.0
  0
VERTEX
  8
0
 10
298.06812450212703
 20
238.80517794923747
 30
0.0
  0
VERTEX
  8
0
 10
297.199987348934
 20
233.7461213252114
 30
0.0
  0
VERTEX
  8
0
 10
296.54896761491904
 20
228.71396115408933
 30
0.0
  0
VERTEX
  8
0
 10
296.1223124502393
 20
223.71782031065814
 30
0.0
  0
VERTEX
  8
0
 10
295.92726900505187
 20
218.76682166970457
 30
0.0
  0
VERTEX
  8
0
 10
295.97108442951384
 20
213.87008810601532
 30
0.0
  0
VERTEX
  8
0
 10
296.26100587378227
 20
209.03674249437722
 30
0.0
  0
VERTEX
  8
0
 10
296.80428048801423
 20
204.2759077095769
 30
0.0
  0
VERTEX
  8
0
 10
297.6081554223669
 20
199.59670662640121
 30
0.0
  0
VERTEX
  8
0
 10
298.67987782699737
 20
195.0082621196369
 30
0.0
  0
VERTEX
  8
0
 10
300.0266948520627
 20
190.51969706407067
 30
0.0
  0
VERTEX
  8
0
 10
301.65585364771994
 20
186.14013433448926
 30
0.0
  0
VERTEX
  8
0
 10
303.57460136412624
 20
181.87869680567948
 30
0.0
  0
VERTEX
  8
0
 10
305.7901851514387
 20
177.74450735242806
 30
0.0
  0
VERTEX
  8
0
 10
308.30985215981445
 20
173.74668884952175
 30
0.0
  0
VERTEX
  8
0
 10
311.1408495394105
 20
169.8943641717473
 30
0.0
  0
VERTEX
  8
0
 10
314.290424440384
 20
166.19665619389144
 30
0.0
  0
VERTEX
  8
0
 10
317.76582401289204
 20
162.66268779074093
 30
0.0
  0
VERTEX
  8
0
 10
321.57429540709165
 20
159.30158183708258
 30
0.0
  0
SEQEND
  8
0
  0
POLYLINE
  8
0
 62
0
 70
0
 66
1
 10
0.0
 20
0.0
 30
0.0
  0
VERTEX
  8
0
 10
365.75
 20
0.0
 30
0.0
  0
VERTEX
  8
0
 10
365.7610561914672
 20
-6.8288241415192505
 30
0.0
  0
VERTEX
  8
0
 10
365.7942247658689
 20
-13.52497398543184
 30
0.0
  0
VERTEX
  8
0
 10
365.84950572320497
 20
-20.088449531737773
 30
0.0
  0
VERTEX
  8
0
 10
365.92689906347556
 20
-26.519250780437044
 30
0.0
  0
VERTEX
  8
0
 10
366.02640478668053
 20
-32.81737773152965
 30
0.0
  0
VERTEX
  8
0
 10
366.14802289282
 20
-38.9828303850156
 30
0.0
  0
VERTEX
  8
0
 10
366.29175338189384
 20
-45.0156087408949
 30
0.0
  0
VERTEX
  8
0
 10
366.4575962539022
 20
-50.91571279916754
 30
0.0
  0
VERTEX
  8
0
 10
366.64555150884496
 20
-56.6831425598335
 30
0.0
  0
VERTEX
  8
0
 10
366.8556191467222
 20
-62.31789802289282
 30
0.0
  0
VERTEX
  8
0
 10
367.08779916753383
 20
-67.81997918834547
 30
0.0
  0
VERTEX
  8
0
 10
367.3420915712799
 20
-73.18938605619147
 30
0.0
  0
VERTEX
  8
0
 10
367.61849635796045
 20
-78.4261186264308
 30
0.0
  0
VERTEX
  8
0
 10
367.9170135275754
 20
-83.53017689906348
 30
0.0
  0
VERTEX
  8
0
 10
368.2376430801249
 20
-88.50156087408949
 30
0.0
  0
VERTEX
  8
0
 10
368.5803850156087
 20
-93.34027055150884
 30
0.0
  0
VERTEX
  8
0
 10
368.94523933402706
 20
-98.04630593132154
 30
0.0
  0
VERTEX
  8
0
 10
369.33220603537984
 20
-102.61966701352758
 30
0.0
  0
VERTEX
  8
0
 10
369.741285119667
 20
-107.06035379812695
 30
0.0
  0
VERTEX
  8
0
 10
370.17247658688865
 20
-111.36836628511966
 30
0.0
  0
VERTEX
  8
0
 10
370.62578043704474
 20
-115.54370447450572
 30
0.0
  0
VERTEX
  8
0
 10
371.10119667013527
 20
-119.58636836628511
 30
0.0
  0
VERTEX
  8
0
 10
371.59872528616023
 20
-123.49635796045784
 30
0.0
  0
VERTEX
  8
0
 10
372.1183662851197
 20
-127.27367325702394
 30
0.0
  0
VERTEX
  8
0
 10
372.66011966701353
 20
-130.91831425598335
 30
0.0
  0
VERTEX
  8
0
 10
373.2239854318418
 20
-134.4302809573361
 30
0.0
  0
VERTEX
  8
0
 10
373.8099635796046
 20
-137.80957336108222
 30
0.0
  0
VERTEX
  8
0
 10
374.4180541103018
 20
-141.05619146722165
 30
0.0
  0
VERTEX
  8
0
 10
375.0482570239334
 20
-144.17013527575443
 30
0.0
  0
VERTEX
  8
0
 10
375.7005723204995
 20
-147.15140478668056
 30
0.0
  0
VERTEX
  8
0
 10
376.375
 20
-150.0
 30
0.0
  0
SEQEND
  8
0
  0
POLYLINE
  8
0
 62
0
 70
0
 66
1
 10
0.0
 20
0.0
 30
0.0
  0
VERTEX
  8
0
 10
376.375
 20
142.16666666666669
 30
0.0
  0
VERTEX
  8
0
 10
375.6548751486326
 20
134.89774078478004
 30
0.0
  0
VERTEX
  8
0
 10
374.96001783590964
 20
127.79785969084425
 30
0.0
  0
VERTEX
  8
0
 10
374.29042806183116
 20
120.86702338485931
 30
0.0
  0
VERTEX
  8
0
 10
373.64610582639716
 20
114.10523186682522
 30
0.0
  0
VERTEX
  8
0
 10
373.0270511296076
 20
107.51248513674199
 30
0.0
  0
VERTEX
  8
0
 10
372.43326397146257
 20
101.0887831946096
 30
0.0
  0
VERTEX
  8
0
 10
371.864744351962
 20
94.83412604042807
 30
0.0
  0
VERTEX
  8
0
 10
371.32149227110585
 20
88.7485136741974
 30
0.0
  0
VERTEX
  8
0
 10
370.80350772889415
 20
82.83194609591757
 30
0.0
  0
VERTEX
  8
0
 10
370.31079072532697
 20
77.0844233055886
 30
0.0
  0
VERTEX
  8
0
 10
369.84334126040426
 20
71.50594530321048
 30
0.0
  0
VERTEX
  8
0
 10
369.401159334126
 20
66.0965120887832
 30
0.0
  0
VERTEX
  8
0
 10
368.98424494649225
 20
60.856123662306786
 30
0.0
  0
VERTEX
  8
0
 10
368.59259809750296
 20
55.784780023781224
 30
0.0
  0
VERTEX
  8
0
 10
368.22621878715813
 20
50.8824811732065
 30
0.0
  0
VERTEX
  8
0
 10
367.8851070154578
 20
46.14922711058264
 30
0.0
  0
VERTEX
  8
0
 10
367.5692627824019
 20
41.58501783590964
 30
0.0
  0
VERTEX
  8
0
 10
367.2786860879905
 20
37.18985334918747
 30
0.0
  0
VERTEX
  8
0
 10
367.01337693222354
 20
32.963733650416174
 30
0.0
  0
VERTEX
  8
0
 10
366.77333531510106
 20
28.906658739595713
 30
0.0
  0
VERTEX
  8
0
 10
366.55856123662306
 20
25.018628616726133
 30
0.0
  0
VERTEX
  8
0
 10
366.36905469678953
 20
21.299643281807363
 30
0.0
  0
VERTEX
  8
0
 10
366.2048156956005
 20
17.749702734839488
 30
0.0
  0
VERTEX
  8
0
 10
366.0658442330559
 20
14.368806975822451
 30
0.0
  0
VERTEX
  8
0
 10
365.95214030915577
 20
11.156956004756267
 30
0.0
  0
VERTEX
  8
0
 10
365.8637039239001
 20
8.114149821640922
 30
0.0
  0
VERTEX
  8
0
 10
365.80053507728894
 20
5.2403884264764145
 30
0.0
  0
VERTEX
  8
0
 10
365.76263376932224
 20
2.5356718192628023
 30
0.0
  0
VERTEX
  8
0
 10
365.75
 20
0.0
 30
0.0
  0
SEQEND
  8
0
  0
POLYLINE
  8
0
 62
0
 70
0
 66
1
 10
0.0
 20
0.0
 30
0.0
  0
VERTEX
  8
0
 10
376.375
 20
142.16666666666669
 30
0.0
  0
VERTEX
  8
0
 10
377.0951248513674
 20
134.89774078478004
 30
0.0
  0
VERTEX
  8
0
 10
377.78998216409036
 20
127.79785969084425
 30
0.0
  0
VERTEX
  8
0
 10
378.45957193816884
 20
120.86702338485931
 30
0.0
  0
VERTEX
  8
0
 10
379.10389417360284
 20
114.10523186682522
 30
0.0
  0
VERTEX
  8
0
 10
379.7229488703924
 20
107.51248513674199
 30
0.0
  0
VERTEX
  8
0
 10
380.31673602853743
 20
101.0887831946096
 30
0.0
  0
VERTEX
  8
0
 10
380.885255648038
 20
94.83412604042807
 30
0.0
  0
VERTEX
  8
0
 10
381.42850772889415
 20
88.7485136741974
 30
0.0
  0
VERTEX
  8
0
 10
381.94649227110585
 20
82.83194609591757
 30
0.0
  0
VERTEX
  8
0
 10
382.43920927467303
 20
77.0844233055886
 30
0.0
  0
VERTEX
  8
0
 10
382.90665873959574
 20
71.50594530321048
 30
0.0
  0
VERTEX
  8
0
 10
383.348840665874
 20
66.0965120887832
 30
0.0
  0
VERTEX
  8
0
 10
383.76575505350775
 20
60.856123662306786
 30
0.0
  0
VERTEX
  8
0
 10
384.15740190249704
 20
55.784780023781224
 30
0.0
  0
VERTEX
  8
0
 10
384.52378121284187
 20
50.8824811732065
 30
0.0
  0
VERTEX
  8
0
 10
384.8648929845422
 20
46.14922711058264
 30
0.0
  0
VERTEX
  8
0
 10
385.1807372175981
 20
41.58501783590964
 30
0.0
  0
VERTEX
  8
0
 10
385.4713139120095
 20
37.18985334918747
 30
0.0
  0
VERTEX
  8
0
 10
385.73662306777646
 20
32.963733650416174
 30
0.0
  0
VERTEX
  8
0
 10
385.97666468489894
 20
28.906658739595713
 30
0.0
  0
VERTEX
  8
0
 10
386.19143876337694
 20
25.018628616726133
 30
0.0
  0
VERTEX
  8
0
 10
386.38094530321047
 20
21.299643281807363
 30
0.0
  0
VERTEX
  8
0
 10
386.5451843043995
 20
17.749702734839488
 30
0.0
  0
VERTEX
  8
0
 10
386.6841557669441
 20
14.368806975822451
 30
0.0
  0
VERTEX
  8
0
 10
386.79785969084423
 20
11.156956004756267
 30
0.0
  0
VERTEX
  8
0
 10
386.8862960760999
 20
8.114149821640922
 30
0.0
  0
VERTEX
  8
0
 10
386.94946492271106
 20
5.2403884264764145
 30
0.0
  0
VERTEX
  8
0
 10
386.98736623067776
 20
2.5356718192628023
 30
0.0
  0
VERTEX
  8
0
 10
387.0
 20
0.0
 30
0.0
  0
SEQEND
  8
0
  0
POLYLINE
  8
0
 62
0
 70
0
 66
1
 10
0.0
 20
0.0
 30
0.0
  0
VERTEX
  8
0
 10
387.0
 20
0.0
 30
0.0
  0
VERTEX
  8
0
 10
386.9889438085328
 20
-6.8288241415192505
 30
0.0
  0
VERTEX
  8
0
 10
386.9557752341311
 20
-13.52497398543184
 30
0.0
  0
VERTEX
  8
0
 10
386.90049427679503
 20
-20.088449531737773
 30
0.0
  0
VERTEX
  8
0
 10
386.82310093652444
 20
-26.519250780437044
 30
0.0
  0
VERTEX
  8
0
 10
386.72359521331947
 20
-32.81737773152965
 30
0.0
  0
VERTEX
  8
0
 10
386.60197710718
 20
-38.9828303850156
 30
0.0
  0
VERTEX
  8
0
 10
386.45824661810616
 20
-45.0156087408949
 30
0.0
  0
VERTEX
  8
0
 10
386.2924037460978
 20
-50.91571279916754
 30
0.0
  0
VERTEX
  8
0
 10
386.10444849115504
 20
-56.6831425598335
 30
0.0
  0
VERTEX
  8
0
 10
385.8943808532778
 20
-62.31789802289282
 30
0.0
  0
VERTEX
  8
0
 10
385.66220083246617
 20
-67.81997918834547
 30
0.0
  0
VERTEX
  8
0
 10
385.4079084287201
 20
-73.18938605619147
 30
0.0
  0
VERTEX
  8
0
 10
385.13150364203955
 20
-78.4261186264308
 30
0.0
  0
VERTEX
  8
0
 10
384.8329864724246
 20
-83.53017689906348
 30
0.0
  0
VERTEX
  8
0
 10
384.5123569198751
 20
-88.50156087408949
 30
0.0
  0
VERTEX
  8
0
 10
384.1696149843913
 20
-93.34027055150884
 30
0.0
  0
VERTEX
  8
0
 10
383.80476066597294
 20
-98.04630593132154
 30
0.0
  0
VERTEX
  8
0
 10
383.41779396462016
 20
-102.61966701352758
 30
0.0
  0
VERTEX
  8
0
 10
383.008714880333
 20
-107.06035379812695
 30
0.0
  0
VERTEX
  8
0
 10
382.57752341311135
 20
-111.36836628511966
 30
0.0
  0
VERTEX
  8
0
 10
382.12421956295526
 20
-115.54370447450572
 30
0.0
  0
VERTEX
  8
0
 10
381.64880332986473
 20
-119.58636836628511
 30
0.0
  0
VERTEX
  8
0
 10
381.15127471383977
 20
-123.49635796045784
 30
0.0
  0
VERTEX
  8
0
 10
380.6316337148803
 20
-127.27367325702394
 30
0.0
  0
VERTEX
  8
0
 10
380.08988033298647
 20
-130.91831425598335
 30
0.0
  0
VERTEX
  8
0
 10
379.5260145681582
 20
-134.4302809573361
 30
0.0
  0
VERTEX
  8
0
 10
378.9400364203954
 20
-137.80957336108222
 30
0.0
  0
VERTEX
  8
0
 10
378.3319458896982
 20
-141.05619146722165
 30
0.0
  0
VERTEX
  8
0
 10
377.7017429760666
 20
-144.17013527575443
 30
0.0
  0
VERTEX
  8
0
 10
377.0494276795005
 20
-147.15140478668056
 30
0.0
  0
VERTEX
  8
0
 10
376.375
 20
-150.0
 30
0.0
  0
SEQEND
  8
0
  0
ENDSEC
  0
EOF
