  0
SECTION
  2
HEADER
  9
$ACADVER
  1
AC1009
  9
$INSBASE
 10
0.0
 20
0.0
 30
0.0
  9
$EXTMIN
 10
0.0
 20
0.0
 30
0.0
  9
$EXTMAX
 10
0.0
 20
0.0
 30
0.0
  0
ENDSEC
  0
SECTION
  2
TABLES
  0
TABLE
  2
VPORT
 70
0
  0
ENDTAB
  0
TABLE
  2
LTYPE
 70
1
  0
LTYPE
  2
CONTINUOUS
 70
0
  3
Solid line
 72
65
 73
0
 40
0.0
  0
ENDTAB
  0
TABLE
  2
LAYER
 70
1
  0
LAYER
  2
0
 70
64
 62
7
  6
continuous
  0
ENDTAB
  0
TABLE
  2
STYLE
 70
1
  0
STYLE
  2
STANDARD
 70
0
 40
0
 41
1.0
 50
0.0
 71
0
 42
1
 3
ARIAL.TTF
 4

  0
ENDTAB
  0
TABLE
  2
VIEW
 70
0
  0
ENDTAB
  0
ENDSEC
  0
SECTION
  2
BLOCKS
  0
ENDSEC
  0
SECTION
  2
ENTITIES
  0
POLYLINE
  8
0
 62
0
 70
0
 66
1
 10
0.0
 20
0.0
 30
0.0
  0
VERTEX
  8
0
 10
402.66666666666663
 20
396.3333333333333
 30
0.0
  0
VERTEX
  8
0
 10
402.78790509259255
 20
390.2271412037037
 30
0.0
  0
VERTEX
  8
0
 10
403.1516203703703
 20
384.380787037037
 30
0.0
  0
VERTEX
  8
0
 10
403.75781249999994
 20
378.7942708333333
 30
0.0
  0
VERTEX
  8
0
 10
404.60648148148147
 20
373.4675925925926
 30
0.0
  0
VERTEX
  8
0
 10
405.6976273148148
 20
368.4007523148148
 30
0.0
  0
VERTEX
  8
0
 10
407.03124999999994
 20
363.59375
 30
0.0
  0
VERTEX
  8
0
 10
408.607349537037
 20
359.04658564814815
 30
0.0
  0
VERTEX
  8
0
 10
410.42592592592587
 20
354.75925925925924
 30
0.0
  0
VERTEX
  8
0
 10
412.48697916666663
 20
350.7317708333333
 30
0.0
  0
VERTEX
  8
0
 10
414.79050925925924
 20
346.9641203703704
 30
0.0
  0
VERTEX
  8
0
 10
417.3365162037037
 20
343.4563078703704
 30
0.0
  0
VERTEX
  8
0
 10
420.125
 20
340.2083333333333
 30
0.0
  0
VERTEX
  8
0
 10
423.1559606481481
 20
337.22019675925924
 30
0.0
  0
VERTEX
  8
0
 10
426.4293981481481
 20
334.49189814814815
 30
0.0
  0
VERTEX
  8
0
 10
429.9453125
 20
332.0234375
 30
0.0
  0
VERTEX
  8
0
 10
433.7037037037037
 20
329.8148148148148
 30
0.0
  0
VERTEX
  8
0
 10
437.70457175925924
 20
327.8660300925926
 30
0.0
  0
VERTEX
  8
0
 10
441.94791666666663
 20
326.1770833333333
 30
0.0
  0
VERTEX
  8
0
 10
446.4337384259259
 20
324.74797453703707
 30
0.0
  0
VERTEX
  8
0
 10
451.162037037037
 20
323.5787037037037
 30
0.0
  0
VERTEX
  8
0
 10
456.1328125
 20
322.66927083333337
 30
0.0
  0
VERTEX
  8
0
 10
461.3460648148148
 20
322.0196759259259
 30
0.0
  0
VERTEX
  8
0
 10
466.80179398148147
 20
321.62991898148147
 30
0.0
  0
VERTEX
  8
0
 10
472.5
 20
321.5
 30
0.0
  0
SEQEND
  8
0
  0
POLYLINE
  8
0
 62
0
 70
0
 66
1
 10
0.0
 20
0.0
 30
0.0
  0
VERTEX
  8
0
 10
402.66666666666663
 20
396.3333333333333
 30
0.0
  0
VERTEX
  8
0
 10
315.39968463001503
 20
361.0751839410405
 30
0.0
  0
SEQEND
  8
0
  0
POLYLINE
  8
0
 62
0
 70
0
 66
1
 10
0.0
 20
0.0
 30
0.0
  0
VERTEX
  8
0
 10
140.5084131450124
 20
116.10403156060471
 30
0.0
  0
VERTEX
  8
0
 10
251.49338087374838
 20
308.3356345431677
 30
0.0
  0
SEQEND
  8
0
  0
POLYLINE
  8
0
 62
0
 70
0
 66
1
 10
0.0
 20
0.0
 30
0.0
  0
VERTEX
  8
0
 10
251.49338087374838
 20
308.3356345431677
 30
0.0
  0
VERTEX
  8
0
 10
255.56971379958176
 20
313.0564587759659
 30
0.0
  0
VERTEX
  8
0
 10
259.6064044020115
 20
317.5749707840605
 30
0.0
  0
VERTEX
  8
0
 10
263.6034526810375
 20
321.89117056745135
 30
0.0
  0
VERTEX
  8
0
 10
267.5608586366598
 20
326.00505812613864
 30
0.0
  0
VERTEX
  8
0
 10
271.4786222688785
 20
329.9166334601222
 30
0.0
  0
VERTEX
  8
0
 10
275.35674357769346
 20
333.62589656940213
 30
0.0
  0
VERTEX
  8
0
 10
279.1952225631047
 20
337.13284745397846
 30
0.0
  0
VERTEX
  8
0
 10
282.9940592251123
 20
340.4374861138511
 30
0.0
  0
VERTEX
  8
0
 10
286.75325356371627
 20
343.5398125490201
 30
0.0
  0
VERTEX
  8
0
 10
290.4728055789165
 20
346.4398267594854
 30
0.0
  0
VERTEX
  8
0
 10
294.1527152707131
 20
349.1375287452471
 30
0.0
  0
VERTEX
  8
0
 10
297.79298263910596
 20
351.63291850630515
 30
0.0
  0
VERTEX
  8
0
 10
301.3936076840951
 20
353.9259960426595
 30
0.0
  0
VERTEX
  8
0
 10
304.9545904056806
 20
356.01676135431023
 30
0.0
  0
VERTEX
  8
0
 10
308.4759308038624
 20
357.9052144412573
 30
0.0
  0
VERTEX
  8
0
 10
311.95762887864055
 20
359.59135530350073
 30
0.0
  0
VERTEX
  8
0
 10
315.39968463001503
 20
361.0751839410405
 30
0.0
  0
SEQEND
  8
0
  0
POLYLINE
  8
0
 62
0
 70
0
 66
1
 10
0.0
 20
0.0
 30
0.0
  0
VERTEX
  8
0
 10
405.02500000000003
 20
361.6791666666667
 30
0.0
  0
VERTEX
  8
0
 10
399.2576443808707
 20
358.82730194936937
 30
0.0
  0
VERTEX
  8
0
 10
393.64795871647493
 20
355.9279248617065
 30
0.0
  0
VERTEX
  8
0
 10
388.1959430068127
 20
352.98103540367816
 30
0.0
  0
VERTEX
  8
0
 10
382.90159725188386
 20
349.9866335752843
 30
0.0
  0
VERTEX
  8
0
 10
377.76492145168856
 20
346.944719376525
 30
0.0
  0
VERTEX
  8
0
 10
372.7859156062268
 20
343.85529280740013
 30
0.0
  0
VERTEX
  8
0
 10
367.96457971549853
 20
340.71835386790974
 30
0.0
  0
VERTEX
  8
0
 10
363.30091377950373
 20
337.53390255805385
 30
0.0
  0
VERTEX
  8
0
 10
358.79491779824247
 20
334.3019388778325
 30
0.0
  0
VERTEX
  8
0
 10
354.4465917717147
 20
331.0224628272456
 30
0.0
  0
VERTEX
  8
0
 10
350.25593569992037
 20
327.6954744062932
 30
0.0
  0
VERTEX
  8
0
 10
346.22294958285966
 20
324.3209736149753
 30
0.0
  0
VERTEX
  8
0
 10
342.34763342053236
 20
320.8989604532919
 30
0.0
  0
VERTEX
  8
0
 10
338.62998721293854
 20
317.429434921243
 30
0.0
  0
VERTEX
  8
0
 10
335.0700109600783
 20
313.9123970188286
 30
0.0
  0
VERTEX
  8
0
 10
331.6677046619515
 20
310.3478467460486
 30
0.0
  0
VERTEX
  8
0
 10
328.42306831855825
 20
306.7357841029032
 30
0.0
  0
VERTEX
  8
0
 10
325.3361019298985
 20
303.07620908939225
 30
0.0
  0
VERTEX
  8
0
 10
322.4068054959722
 20
299.3691217055158
 30
0.0
  0
VERTEX
  8
0
 10
319.6351790167795
 20
295.61452195127384
 30
0.0
  0
VERTEX
  8
0
 10
317.0212224923202
 20
291.8124098266664
 30
0.0
  0
VERTEX
  8
0
 10
314.56493592259443
 20
287.9627853316934
 30
0.0
  0
VERTEX
  8
0
 10
312.2663193076022
 20
284.0656484663549
 30
0.0
  0
VERTEX
  8
0
 10
310.1253726473434
 20
280.12099923065097
 30
0.0
  0
VERTEX
  8
0
 10
308.1420959418182
 20
276.1288376245815
 30
0.0
  0
VERTEX
  8
0
 10
306.3164891910264
 20
272.08916364814644
 30
0.0
  0
VERTEX
  8
0
 10
304.6485523949682
 20
268.00197730134596
 30
0.0
  0
VERTEX
  8
0
 10
303.1382855536434
 20
263.8672785841799
 30
0.0
  0
VERTEX
  8
0
 10
301.7856886670521
 20
259.6850674966484
 30
0.0
  0
VERTEX
  8
0
 10
300.5907617351944
 20
255.45534403875138
 30
0.0
  0
VERTEX
  8
0
 10
299.5535047580702
 20
251.17810821048886
 30
0.0
  0
VERTEX
  8
0
 10
298.6739177356794
 20
246.8533600118608
 30
0.0
  0
VERTEX
  8
0
 10
297.95200066802215
 20
242.48109944286722
 30
0.0
  0
VERTEX
  8
0
 10
297.3877535550984
 20
238.0613265035082
 30
0.0
  0
VERTEX
  8
0
 10
296.98117639690815
 20
233.59404119378362
 30
0.0
  0
VERTEX
  8
0
 10
296.73226919345143
 20
229.07924351369357
 30
0.0
  0
VERTEX
  8
0
 10
296.6410319447282
 20
224.51693346323796
 30
0.0
  0
VERTEX
  8
0
 10
296.7074646507384
 20
219.9071110424169
 30
0.0
  0
VERTEX
  8
0
 10
296.9315673114822
 20
215.2497762512303
 30
0.0
  0
VERTEX
  8
0
 10
297.3133399269595
 20
210.5449290896782
 30
0.0
  0
VERTEX
  8
0
 10
297.85278249717027
 20
205.79256955776063
 30
0.0
  0
VERTEX
  8
0
 10
298.54989502211447
 20
200.99269765547749
 30
0.0
  0
VERTEX
  8
0
 10
299.4046775017923
 20
196.14531338282887
 30
0.0
  0
VERTEX
  8
0
 10
300.41712993620354
 20
191.25041673981474
 30
0.0
  0
VERTEX
  8
0
 10
301.58725232534835
 20
186.30800772643508
 30
0.0
  0
SEQEND
  8
0
  0
POLYLINE
  8
0
 62
0
 70
0
 66
1
 10
0.0
 20
0.0
 30
0.0
  0
VERTEX
  8
0
 10
321.57429540709165
 20
159.3015818370826
 30
0.0
  0
VERTEX
  8
0
 10
244.61955214138374
 20
53.620353587654904
 30
0.0
  0
SEQEND
  8
0
  0
POLYLINE
  8
0
 62
0
 70
0
 66
1
 10
0.0
 20
0.0
 30
0.0
  0
VERTEX
  8
0
 10
405.02500000000003
 20
361.6791666666667
 30
0.0
  0
VERTEX
  8
0
 10
401.0869249382232
 20
361.1337411420177
 30
0.0
  0
VERTEX
  8
0
 10
397.11956419028326
 20
360.3050343275233
 30
0.0
  0
VERTEX
  8
0
 10
393.13016490633726
 20
359.2021690979702
 30
0.0
  0
VERTEX
  8
0
 10
389.12597423654233
 20
357.83426832814524
 30
0.0
  0
VERTEX
  8
0
 10
385.1142393310555
 20
356.2104548928351
 30
0.0
  0
VERTEX
  8
0
 10
381.10220734003394
 20
354.3398516668265
 30
0.0
  0
VERTEX
  8
0
 10
377.0971254136348
 20
352.2315815249063
 30
0.0
  0
VERTEX
  8
0
 10
373.106240702015
 20
349.89476734186115
 30
0.0
  0
VERTEX
  8
0
 10
369.1368003553318
 20
347.3385319924779
 30
0.0
  0
VERTEX
  8
0
 10
365.1960515237422
 20
344.5719983515432
 30
0.0
  0
VERTEX
  8
0
 10
361.2912413574033
 20
341.6042892938438
 30
0.0
  0
VERTEX
  8
0
 10
357.4296170064722
 20
338.4445276941665
 30
0.0
  0
VERTEX
  8
0
 10
353.61842562110604
 20
335.10183642729805
 30
0.0
  0
VERTEX
  8
0
 10
349.8649143514619
 20
331.5853383680252
 30
0.0
  0
VERTEX
  8
0
 10
346.1763303476969
 20
327.9041563911347
 30
0.0
  0
VERTEX
  8
0
 10
342.559920759968
 20
324.0674133714133
 30
0.0
  0
VERTEX
  8
0
 10
339.0229327384325
 20
320.08423218364766
 30
0.0
  0
VERTEX
  8
0
 10
335.5726134332473
 20
315.9637357026247
 30
0.0
  0
VERTEX
  8
0
 10
332.2162099945696
 20
311.71504680313103
 30
0.0
  0
VERTEX
  8
0
 10
328.9609695725565
 20
307.3472883599535
 30
0.0
  0
VERTEX
  8
0
 10
325.81413931736506
 20
302.8695832478787
 30
0.0
  0
VERTEX
  8
0
 10
322.7829663791524
 20
298.29105434169367
 30
0.0
  0
VERTEX
  8
0
 10
319.87469790807563
 20
293.6208245161848
 30
0.0
  0
VERTEX
  8
0
 10
317.0965810542918
 20
288.86801664613915
 30
0.0
  0
VERTEX
  8
0
 10
314.455862967958
 20
284.0417536063433
 30
0.0
  0
VERTEX
  8
0
 10
311.95979079923137
 20
279.1511582715841
 30
0.0
  0
VERTEX
  8
0
 10
309.61561169826894
 20
274.2053535166482
 30
0.0
  0
VERTEX
  8
0
 10
307.4305728152279
 20
269.21346221632234
 30
0.0
  0
VERTEX
  8
0
 10
305.41192130026525
 20
264.1846072453934
 30
0.0
  0
VERTEX
  8
0
 10
303.5669043035382
 20
259.127911478648
 30
0.0
  0
VERTEX
  8
0
 10
301.9027689752037
 20
254.05249779087296
 30
0.0
  0
VERTEX
  8
0
 10
300.42676246541896
 20
248.96748905685507
 30
0.0
  0
VERTEX
  8
0
 10
299.14613192434103
 20
243.882008151381
 30
0.0
  0
VERTEX
  8
0
 10
298.06812450212703
 20
238.80517794923747
 30
0.0
  0
VERTEX
  8
0
 10
297.199987348934
 20
233.7461213252114
 30
0.0
  0
VERTEX
  8
0
 10
296.54896761491904
 20
228.71396115408933
 30
0.0
  0
VERTEX
  8
0
 10
296.1223124502393
 20
223.71782031065814
 30
0.0
  0
VERTEX
  8
0
 10
295.92726900505187
 20
218.76682166970457
 30
0.0
  0
VERTEX
  8
0
 10
295.97108442951384
 20
213.87008810601532
 30
0.0
  0
VERTEX
  8
0
 10
296.26100587378227
 20
209.03674249437722
 30
0.0
  0
VERTEX
  8
0
 10
296.80428048801423
 20
204.2759077095769
 30
0.0
  0
VERTEX
  8
0
 10
297.6081554223669
 20
199.59670662640121
 30
0.0
  0
VERTEX
  8
0
 10
298.67987782699737
 20
195.0082621196369
 30
0.0
  0
VERTEX
  8
0
 10
300.0266948520627
 20
190.51969706407067
 30
0.0
  0
VERTEX
  8
0
 10
301.65585364771994
 20
186.14013433448926
 30
0.0
  0
VERTEX
  8
0
 10
303.57460136412624
 20
181.87869680567948
 30
0.0
  0
VERTEX
  8
0
 10
305.7901851514387
 20
177.74450735242806
 30
0.0
  0
VERTEX
  8
0
 10
308.30985215981445
 20
173.74668884952175
 30
0.0
  0
VERTEX
  8
0
 10
311.1408495394105
 20
169.8943641717473
 30
0.0
  0
VERTEX
  8
0
 10
314.290424440384
 20
166.19665619389144
 30
0.0
  0
VERTEX
  8
0
 10
317.76582401289204
 20
162.66268779074093
 30
0.0
  0
VERTEX
  8
0
 10
321.57429540709165
 20
159.30158183708258
 30
0.0
  0
SEQEND
  8
0
  0
POLYLINE
  8
0
 62
0
 70
0
 66
1
 10
0.0
 20
0.0
 30
0.0
  0
VERTEX
  8
0
 10
137.0268627500123
 20
115.73902177059898
 30
0.0
  0
VERTEX
  8
0
 10
244.61955214138374
 20
53.620353587654904
 30
0.0
  0
SEQEND
  8
0
  0
ENDSEC
  0
EOF
